<?xml version="1.0" encoding="UTF-8" standalone="no"?>
<svg
   xmlns:dc="http://purl.org/dc/elements/1.1/"
   xmlns:cc="http://creativecommons.org/ns#"
   xmlns:rdf="http://www.w3.org/1999/02/22-rdf-syntax-ns#"
   xmlns:svg="http://www.w3.org/2000/svg"
   xmlns="http://www.w3.org/2000/svg"
   xmlns:sodipodi="http://sodipodi.sourceforge.net/DTD/sodipodi-0.dtd"
   xmlns:inkscape="http://www.inkscape.org/namespaces/inkscape"
   data-v-423bf9ae=""
   viewBox="0 0 500 500"
   class="iconLeft"
   version="1.1"
   id="svg1000"
   sodipodi:docname="icon-blue.svg"
   width="500"
   height="500"
   inkscape:version="0.92.5 (2060ec1f9f, 2020-04-08)">
  <metadata
     id="metadata1004">
    <rdf:RDF>
      <cc:Work
         rdf:about="">
        <dc:format>image/svg+xml</dc:format>
        <dc:type
           rdf:resource="http://purl.org/dc/dcmitype/StillImage" />
        <dc:title></dc:title>
      </cc:Work>
    </rdf:RDF>
  </metadata>
  <sodipodi:namedview
     pagecolor="#ffffff"
     bordercolor="#666666"
     borderopacity="1"
     objecttolerance="10"
     gridtolerance="10"
     guidetolerance="10"
     inkscape:pageopacity="0"
     inkscape:pageshadow="2"
     inkscape:window-width="954"
     inkscape:window-height="1045"
     id="namedview1002"
     showgrid="false"
     inkscape:zoom="0.96102398"
     inkscape:cx="268.5"
     inkscape:cy="108.26114"
     inkscape:window-x="962"
     inkscape:window-y="31"
     inkscape:window-maximized="0"
     inkscape:current-layer="svg1000" />
  <!---->
  <!---->
  <!---->
  <defs
     data-v-423bf9ae=""
     id="defs989">
    <linearGradient
       data-v-423bf9ae=""
       gradientTransform="rotate(25)"
       id="8de80381-832c-4887-851c-7e0d8cd15295"
       x1="0"
       y1="0"
       x2="1"
       y2="0">
      <stop
         data-v-423bf9ae=""
         offset="0%"
         style="stop-color: rgb(13, 33, 117); stop-opacity: 1;"
         id="stop984" />
      <stop
         data-v-423bf9ae=""
         offset="100%"
         style="stop-color: rgb(31, 30, 251); stop-opacity: 1;"
         id="stop986" />
    </linearGradient>
  </defs>
  <g
     data-v-423bf9ae=""
     id="3b2d88a9-e18e-43b1-a12c-cc6a3a6b4530"
     transform="matrix(5.5001081,0,0,5.5001081,-10.958349,-12.403853)"
     style="fill:#0000ff;stroke:none">
    <defs
       id="defs993">
      <style
         id="style991">.cls-1{fill:#000}</style>
    </defs>
    <g
       data-name="Your Icons"
       id="g997"
       style="fill:#0000ff">
      <path
         class="cls-1"
         d="m 47.34,41.79 a 6.21,6.21 0 1 0 6.2,6.21 6.22,6.22 0 0 0 -6.2,-6.21 z m 0,10.42 a 4.21,4.21 0 1 1 4.2,-4.21 4.22,4.22 0 0 1 -4.2,4.21 z m 0,-49.42 a 6.21,6.21 0 0 0 -1,12.33 v 20.67 a 1,1 0 0 0 2,0 V 15.12 a 6.21,6.21 0 0 0 -1,-12.33 z m 0,10.42 a 4.21,4.21 0 1 1 4.2,-4.21 4.22,4.22 0 0 1 -4.2,4.21 z m 1,67.67 V 60.21 a 1,1 0 0 0 -2,0 v 20.67 a 6.2,6.2 0 1 0 2,0 z m -1,10.33 a 4.21,4.21 0 1 1 4.2,-4.21 4.22,4.22 0 0 1 -4.2,4.21 z m 39,-49.42 A 6.21,6.21 0 0 0 80.22,47 H 59.54 a 1,1 0 1 0 0,2 h 20.68 a 6.2,6.2 0 1 0 6.12,-7.21 z m 0,10.42 a 4.21,4.21 0 1 1 4.2,-4.21 4.22,4.22 0 0 1 -4.2,4.21 z M 24.15,23.4 a 1,1 0 0 0 -1.42,0 1,1 0 0 0 0,1.41 L 38,40.08 a 1.0005623,1.0005623 0 1 0 1.41,-1.42 z M 35.13,49 a 1,1 0 0 0 0,-2 H 14.46 a 6.21,6.21 0 1 0 0,2 z M 8.34,52.21 A 4.21,4.21 0 1 1 12.54,48 4.22,4.22 0 0 1 8.34,52.21 Z M 38,55.92 22.73,71.19 a 1,1 0 0 0 0,1.41 1,1 0 0 0 0.71,0.3 1,1 0 0 0 0.71,-0.3 L 39.41,57.34 a 1,1 0 0 0 0,-1.42 1,1 0 0 0 -1.41,0 z m 18.68,0 a 1.0040916,1.0040916 0 0 0 -1.42,1.42 L 70.53,72.6 a 1,1 0 0 0 0.7,0.3 1,1 0 0 0 0.71,-1.71 z M 56,40.37 a 1,1 0 0 0 0.71,-0.29 L 71.94,24.81 A 1,1 0 1 0 70.53,23.4 L 55.26,38.66 a 1,1 0 0 0 0,1.42 1,1 0 0 0 0.74,0.29 z M 76.91,22.92 a 4.51,4.51 0 1 0 -3.18,-1.32 4.44,4.44 0 0 0 3.18,1.32 z m -1.76,-6.26 a 2.5,2.5 0 0 1 4.26,1.76 2.49,2.49 0 0 1 -0.73,1.77 2.54,2.54 0 0 1 -3.53,0 2.47,2.47 0 0 1 0,-3.53 z m 1.76,56.42 a 4.49,4.49 0 1 0 3.19,1.32 4.47,4.47 0 0 0 -3.19,-1.32 z m 1.77,6.26 a 2.54,2.54 0 0 1 -3.53,0 2.47,2.47 0 0 1 0,-3.53 2.5,2.5 0 0 1 3.53,3.53 z M 17.76,73.08 a 4.51,4.51 0 1 0 3.18,1.32 4.43,4.43 0 0 0 -3.18,-1.32 z m 1.77,6.26 a 2.55,2.55 0 0 1 -3.54,0 2.5,2.5 0 0 1 1.77,-4.26 2.49,2.49 0 0 1 2.5,2.5 2.47,2.47 0 0 1 -0.73,1.76 z M 17.76,22.92 a 4.51,4.51 0 1 0 -3.18,-1.32 4.47,4.47 0 0 0 3.18,1.32 z M 16,16.66 a 2.5,2.5 0 0 1 4.27,1.76 2.49,2.49 0 0 1 -0.73,1.77 2.55,2.55 0 0 1 -3.54,0 2.5,2.5 0 0 1 0,-3.53 z"
         id="path995"
         inkscape:connector-curvature="0"
         style="fill:#0000ff" />
    </g>
  </g>
  <!---->
</svg>
