<svg xmlns="http://www.w3.org/2000/svg" viewBox="0 0 537 91" class="iconLeft"><path d="M134.827 75.41c6.66 0 12.861-3.043 16.42-6.43V44.634H132.99v9.646h7.636v9.244c-1.148 1.148-3.158 1.722-5.168 1.722-8.268 0-12.459-6.43-12.459-17.397 0-10.737 5.168-17.168 12-17.168 4.191 0 6.603 1.493 8.842 3.847l6.488-7.349c-3.33-3.445-8.268-6.718-15.33-6.718-13.608 0-24.172 10.048-24.172 27.79 0 17.799 10.564 27.158 24 27.158zm44.785 0c10.507 0 20.325-7.751 20.325-21.417 0-13.665-9.818-21.588-20.325-21.588-10.508 0-20.326 7.923-20.326 21.588 0 13.666 9.818 21.417 20.326 21.417zm0-9.531c-5.455 0-8.211-4.651-8.211-11.886 0-7.234 2.756-12 8.21-12 5.455 0 8.211 4.766 8.211 12 0 7.235-2.756 11.886-8.21 11.886zm41.224 8.612h11.828V42.74h13.723v-9.244h-13.723v-1.378c0-5.053 2.412-7.407 7.464-7.407 3.043 0 5.857.574 8.383 1.608l2.24-8.67c-3.388-1.206-7.465-2.24-12.058-2.24-12.46 0-17.857 7.35-17.857 16.766v1.32l-10.507.46v8.785h10.507zm62.871.919c4.995 0 7.809-.862 12-2.24l-2.698-8.67c-2.47 1.034-4.421 1.379-6.259 1.379-3.272 0-6.43-1.723-6.43-6.775V16.328H256.95v9.36h11.54v32.841c0 10.393 5.168 16.88 15.216 16.88zm34.393 0c5.741 0 9.875-2.699 13.435-6.89h.344l.862 5.971h9.646V33.496h-11.828v26.986c-2.699 3.789-4.823 4.88-7.809 4.88-4.42 0-5.741-2.469-5.741-8.096v-23.77H305.18v25.32c0 10.335 3.847 16.594 12.919 16.594zm56.842 0c5.282 0 11.253-1.838 15.732-4.708l-3.847-7.177c-3.503 1.952-6.66 2.928-10.278 2.928-5.856 0-10.794-2.756-11.598-9.015h26.871c.172-1.033.46-3.215.46-5.34 0-11.138-6.431-19.693-18.718-19.693-10.622 0-20.728 8.153-20.728 21.588 0 13.55 9.704 21.417 22.106 21.417zm-10.106-25.838c1.034-5.512 4.709-8.038 8.957-8.038 5.397 0 7.809 3.215 7.809 8.038zm37.608 24.92h11.828V47.045c2.813-2.986 4.88-4.593 8.095-4.593 4.364 0 5.857 2.584 5.857 8.21v23.828h11.828v-25.32c0-10.393-4.02-16.766-13.034-16.766-5.914 0-10.277 3.1-13.722 6.603h-.345l-.861-5.512h-9.646zm69.99.918c5.455 0 11.656-1.895 16.479-6.029l-4.823-7.464c-2.813 2.124-6.316 3.962-10.507 3.962-6.603 0-11.196-4.651-11.196-11.886 0-7.234 4.765-12 11.598-12 2.985 0 5.799 1.034 8.842 3.388l5.454-7.35c-3.387-3.215-8.67-5.626-14.928-5.626-12.344 0-23.081 7.923-23.081 21.588 0 13.666 9.646 21.417 22.162 21.417zm47.197 0c5.282 0 11.253-1.838 15.732-4.708l-3.847-7.177c-3.503 1.952-6.66 2.928-10.278 2.928-5.856 0-10.794-2.756-11.598-9.015h26.871c.172-1.033.46-3.215.46-5.34 0-11.138-6.431-19.693-18.718-19.693-10.622 0-20.728 8.153-20.728 21.588 0 13.55 9.704 21.417 22.106 21.417zm-10.106-25.838c1.034-5.512 4.709-8.038 8.957-8.038 5.397 0 7.809 3.215 7.809 8.038z" fill="#fff"/><path d="M46.132 39.557a6.238 6.238 0 106.228 6.239 6.248 6.248 0 00-6.228-6.239zm0 10.468a4.23 4.23 0 114.22-4.23 4.24 4.24 0 01-4.22 4.23zm0-49.645a6.238 6.238 0 00-1.005 12.386V33.53a1.005 1.005 0 002.01 0V12.766A6.238 6.238 0 0046.132.38zm0 10.468a4.23 4.23 0 114.22-4.23 4.24 4.24 0 01-4.22 4.23zm1.005 67.977V58.061a1.005 1.005 0 00-2.01 0v20.764a6.228 6.228 0 102.01 0zm-1.005 10.377a4.23 4.23 0 114.22-4.23 4.24 4.24 0 01-4.22 4.23zm39.177-49.645a6.238 6.238 0 00-6.148 5.234H58.387a1.005 1.005 0 100 2.01h20.774a6.228 6.228 0 106.148-7.244zm0 10.468a4.23 4.23 0 114.22-4.23 4.24 4.24 0 01-4.22 4.23zM22.837 21.084a1.005 1.005 0 00-1.427 0 1.005 1.005 0 000 1.416l15.34 15.34a1.005 1.005 0 101.416-1.427zM33.867 46.8a1.005 1.005 0 000-2.009H13.103a6.238 6.238 0 100 2.01zM6.955 50.025a4.23 4.23 0 114.219-4.23 4.24 4.24 0 01-4.22 4.23zm29.795 3.727L21.41 69.09a1.005 1.005 0 000 1.416 1.005 1.005 0 00.713.302 1.005 1.005 0 00.714-.302l15.329-15.329a1.005 1.005 0 000-1.426 1.005 1.005 0 00-1.416 0zm18.764 0a1.009 1.009 0 00-1.426 1.426l15.34 15.33a1.005 1.005 0 00.703.3 1.005 1.005 0 00.713-1.717zm-.683-15.621a1.005 1.005 0 00.714-.291L70.844 22.5a1.005 1.005 0 10-1.417-1.416l-15.339 15.33a1.005 1.005 0 000 1.426 1.005 1.005 0 00.743.291zm21.005-17.53a4.53 4.53 0 10-3.194-1.325 4.46 4.46 0 003.194 1.326zm-1.768-6.288a2.511 2.511 0 014.28 1.768 2.501 2.501 0 01-.734 1.778 2.552 2.552 0 01-3.546 0 2.481 2.481 0 010-3.546zm1.768 56.677a4.51 4.51 0 103.205 1.326 4.49 4.49 0 00-3.205-1.326zm1.778 6.288a2.552 2.552 0 01-3.546 0 2.481 2.481 0 010-3.546 2.511 2.511 0 013.546 3.546zM16.418 70.99a4.53 4.53 0 103.194 1.326 4.45 4.45 0 00-3.194-1.326zm1.778 6.288a2.562 2.562 0 01-3.556 0 2.511 2.511 0 011.778-4.28 2.501 2.501 0 012.511 2.512 2.481 2.481 0 01-.733 1.768zm-1.778-56.676a4.53 4.53 0 10-3.195-1.326 4.49 4.49 0 003.195 1.326zm-1.768-6.289a2.511 2.511 0 014.289 1.768 2.501 2.501 0 01-.733 1.778 2.562 2.562 0 01-3.556 0 2.511 2.511 0 010-3.546z" data-name="Your Icons" fill="#fff"/></svg>